<svg width="68" height="18" viewBox="0 0 68 18" fill="none" xmlns="http://www.w3.org/2000/svg">
<g filter="url(#filter0_f)">
<path d="M6.01074 14.0547C5.90592 14.0182 5.68034 14 5.33398 14H2.4834C2.24642 14 2.05729 13.9635 1.91602 13.8906C1.77474 13.8132 1.7041 13.6742 1.7041 13.4736C1.7041 13.3278 1.73828 13.2116 1.80664 13.125C1.98893 13.1706 2.15527 13.1934 2.30566 13.1934C2.46061 13.1934 2.58138 13.1774 2.66797 13.1455C2.75911 13.1136 2.83659 13.0566 2.90039 12.9746C3.04167 12.8014 3.11686 12.5166 3.12598 12.1201V5.13379C3.12598 4.77376 3.02572 4.54818 2.8252 4.45703C2.76139 4.42513 2.6748 4.39779 2.56543 4.375C2.45605 4.35221 2.34668 4.32943 2.2373 4.30664C2.13249 4.2793 2.04362 4.2474 1.9707 4.21094C1.82487 4.13802 1.75195 4.01497 1.75195 3.8418C1.75195 3.67318 1.78613 3.54785 1.85449 3.46582C1.95931 3.50228 2.1849 3.52051 2.53125 3.52051H5.31348C5.55046 3.52051 5.73958 3.55924 5.88086 3.63672C6.02669 3.70964 6.09961 3.84635 6.09961 4.04688C6.09961 4.19727 6.06315 4.31348 5.99023 4.39551C5.81706 4.34993 5.62793 4.32715 5.42285 4.32715C4.98079 4.32715 4.75293 4.68717 4.73926 5.40723V12.3867C4.73926 12.7467 4.83952 12.9746 5.04004 13.0703C5.10384 13.0977 5.19043 13.1227 5.2998 13.1455C5.40918 13.1683 5.51628 13.1934 5.62109 13.2207C5.73047 13.2435 5.82161 13.2731 5.89453 13.3096C6.04492 13.387 6.12012 13.5101 6.12012 13.6787C6.12012 13.8382 6.08366 13.9635 6.01074 14.0547ZM10.6504 14.0293C10.5723 14.0098 10.4473 14 10.2754 14H8.40625C8.03125 14 7.79102 13.9336 7.68555 13.8008C7.64258 13.75 7.62109 13.6914 7.62109 13.625C7.62109 13.4609 7.65234 13.3398 7.71484 13.2617C7.80859 13.293 7.91406 13.3086 8.03125 13.3086C8.15234 13.3086 8.24219 13.2598 8.30078 13.1621C8.36328 13.0645 8.39258 12.8828 8.38867 12.6172V8.78516C8.38867 8.41797 8.32031 8.18945 8.18359 8.09961C8.12891 8.06445 8.05664 8.04688 7.9668 8.04688C7.87695 8.04688 7.80469 8.06055 7.75 8.08789C7.69922 8.11523 7.65625 8.13477 7.62109 8.14648C7.58984 8.1582 7.5625 8.1582 7.53906 8.14648C7.51562 8.13086 7.49219 8.10938 7.46875 8.08203C7.41016 8.01953 7.38086 7.95508 7.38086 7.88867C7.38086 7.81836 7.4043 7.74609 7.45117 7.67188C7.50195 7.59375 7.58203 7.50586 7.69141 7.4082C7.80078 7.30664 7.92578 7.21484 8.06641 7.13281C8.38281 6.94922 8.69922 6.85742 9.01562 6.85742C9.37891 6.85742 9.59375 7.09766 9.66016 7.57812C9.67969 7.71875 9.69141 7.86328 9.69531 8.01172C10.2773 7.52344 10.9102 7.17578 11.5938 6.96875C11.8398 6.89453 12.0879 6.85742 12.3379 6.85742C12.5918 6.85742 12.832 6.89062 13.0586 6.95703C13.2891 7.02344 13.4883 7.13086 13.6562 7.2793C14.0117 7.5918 14.1895 8.08008 14.1895 8.74414V12.7168C14.2012 13.0215 14.3145 13.209 14.5293 13.2793C14.5879 13.2988 14.6602 13.3164 14.7461 13.332C14.832 13.3477 14.9082 13.3672 14.9746 13.3906C15.0449 13.4102 15.0996 13.4336 15.1387 13.4609C15.2051 13.5117 15.2383 13.5938 15.2383 13.707C15.2383 13.8438 15.207 13.9512 15.1445 14.0293C15.0664 14.0098 14.9414 14 14.7695 14H12.9004C12.5254 14 12.2852 13.9336 12.1797 13.8008C12.1367 13.75 12.1152 13.6914 12.1152 13.625C12.1152 13.4609 12.1465 13.3398 12.209 13.2617C12.3027 13.293 12.3887 13.3086 12.4668 13.3086C12.5488 13.3086 12.6172 13.2988 12.6719 13.2793C12.7266 13.2559 12.7695 13.2188 12.8008 13.168C12.8555 13.0742 12.8828 12.8906 12.8828 12.6172V9.16016C12.8828 8.49609 12.6855 8.125 12.291 8.04688C12.1699 8.02344 12.0176 8.01172 11.834 8.01172C11.6543 8.01172 11.4551 8.03906 11.2363 8.09375C11.0176 8.14844 10.8125 8.21875 10.6211 8.30469C10.2539 8.46875 9.94531 8.67578 9.69531 8.92578V12.7168C9.70703 13.0215 9.81836 13.209 10.0293 13.2793C10.0918 13.2988 10.1641 13.3164 10.2461 13.332C10.332 13.3477 10.4102 13.3672 10.4805 13.3906C10.5508 13.4102 10.6055 13.4336 10.6445 13.4609C10.7109 13.5117 10.7441 13.5938 10.7441 13.707C10.7441 13.8438 10.7129 13.9512 10.6504 14.0293ZM20.1426 8.9375C20.1426 8.33594 19.8926 7.9375 19.3926 7.74219C19.2324 7.67969 19.0586 7.64844 18.8711 7.64844C18.6875 7.64844 18.5156 7.66406 18.3555 7.69531C18.1992 7.72656 18.0605 7.77539 17.9395 7.8418C17.666 7.99023 17.5293 8.20312 17.5293 8.48047C17.5293 8.74609 17.6426 8.97656 17.8691 9.17188C18.1191 9.37891 18.584 9.63477 19.2637 9.93945C19.9434 10.2402 20.4668 10.5703 20.834 10.9297C21.2051 11.2852 21.3906 11.6953 21.3906 12.1602C21.3906 12.6836 21.1758 13.125 20.7461 13.4844C20.2422 13.9023 19.5449 14.1113 18.6543 14.1113C17.5645 14.1113 16.8105 13.8789 16.3926 13.4141C16.248 13.25 16.1758 13.041 16.1758 12.7871C16.1758 12.1738 16.3262 11.8164 16.627 11.7148C16.7012 11.6914 16.7715 11.6797 16.8379 11.6797C17.0215 11.6797 17.1211 11.7363 17.1367 11.8496C17.2227 12.8262 17.7695 13.3145 18.7773 13.3145C19.3828 13.3145 19.7871 13.1445 19.9902 12.8047C20.0566 12.6953 20.0898 12.5625 20.0898 12.4062C20.0898 12.25 20.0391 12.1074 19.9375 11.9785C19.8398 11.8496 19.7031 11.7305 19.5273 11.6211C19.3516 11.5078 19.1426 11.3984 18.9004 11.293L18.1211 10.9414C16.9258 10.3945 16.3281 9.66797 16.3281 8.76172C16.3281 8.17578 16.5879 7.70703 17.1074 7.35547C17.5996 7.02344 18.2344 6.85742 19.0117 6.85742C20.0664 6.85742 20.7227 7.08594 20.9805 7.54297C21.0469 7.66016 21.0801 7.78906 21.0801 7.92969C21.0801 8.07031 21.0723 8.19727 21.0566 8.31055C21.041 8.41992 21.0215 8.51953 20.998 8.60938C20.959 8.78125 20.9141 8.90234 20.8633 8.97266C20.7617 9.04688 20.6152 9.08398 20.4238 9.08398C20.2363 9.08398 20.1426 9.03516 20.1426 8.9375ZM24.666 10.0039L24.6602 11.5449C24.6602 12.1895 24.6934 12.5781 24.7598 12.7109C24.8262 12.8398 24.9043 12.918 24.9941 12.9453C25.084 12.9688 25.1992 12.9805 25.3398 12.9805C25.4805 12.9805 25.6074 12.9707 25.7207 12.9512C25.8379 12.9277 25.9473 12.8984 26.0488 12.8633C26.1504 12.8281 26.248 12.7891 26.3418 12.7461L26.6289 12.623C26.6953 12.5996 26.7695 12.668 26.8516 12.8281C26.875 12.8711 26.8867 12.9219 26.8867 12.9805C26.8867 13.0352 26.8633 13.1074 26.8164 13.1973C26.7695 13.2871 26.6777 13.3906 26.541 13.5078C26.4082 13.6211 26.252 13.7227 26.0723 13.8125C25.6816 14.0117 25.3301 14.1113 25.0176 14.1113C24.709 14.1113 24.457 14.0938 24.2617 14.0586C24.0664 14.0234 23.9004 13.9531 23.7637 13.8477C23.4824 13.6289 23.3418 13.2285 23.3418 12.6465V8.03516H22.7617C22.6406 8.03516 22.5527 7.99609 22.498 7.91797C22.4043 7.79688 22.3574 7.69531 22.3574 7.61328C22.3574 7.47656 22.3906 7.40039 22.457 7.38477C23.0781 7.2793 23.5176 6.81836 23.7754 6.00195C23.8496 5.75586 23.9082 5.46484 23.9512 5.12891C24.1387 5.09766 24.2793 5.08203 24.373 5.08203C24.4707 5.08203 24.5547 5.13086 24.625 5.22852C24.6953 5.32617 24.7285 5.43945 24.7246 5.56836C24.7246 5.69727 24.7227 5.81836 24.7188 5.93164C24.7148 6.04492 24.7109 6.16797 24.707 6.30078L24.6836 7.12109H26.7109C26.7617 7.21094 26.7871 7.30664 26.7871 7.4082V7.58984C26.7871 7.75391 26.6992 7.88867 26.5234 7.99414C26.3477 8.0957 26.1523 8.14648 25.9375 8.14648C25.7266 8.14648 25.5742 8.14453 25.4805 8.14062C25.3906 8.13281 25.3027 8.125 25.2168 8.11719L24.959 8.08203C24.8691 8.07422 24.7734 8.06641 24.6719 8.05859V8.12305L24.666 10.0039ZM31.9961 13.2559C31.4258 13.8262 30.7363 14.1113 29.9277 14.1113C29.3027 14.1113 28.8027 13.9316 28.4277 13.5723C28.0488 13.209 27.8594 12.7383 27.8594 12.1602C27.8594 11.4414 28.1797 10.9023 28.8203 10.543C29.3984 10.2148 30.2129 10.0508 31.2637 10.0508H31.9961C32 9.90234 32.002 9.75781 32.002 9.61719V9.17773C32.002 8.6543 31.9258 8.28516 31.7734 8.07031C31.6016 7.82812 31.3086 7.70703 30.8945 7.70703C29.9453 7.70703 29.457 8.04688 29.4297 8.72656C29.4258 8.83203 29.4277 8.91992 29.4355 8.99023C29.3574 9.05273 29.2246 9.08398 29.0371 9.08398C28.8535 9.08398 28.7188 9.0625 28.6328 9.01953C28.5508 8.97656 28.4785 8.91797 28.416 8.84375C28.2832 8.69141 28.2168 8.49805 28.2168 8.26367C28.2168 8.02539 28.2852 7.81836 28.4219 7.64258C28.5625 7.46289 28.752 7.31641 28.9902 7.20312C29.4551 6.97266 30.0039 6.85742 30.6367 6.85742C31.2695 6.85742 31.7441 6.91992 32.0605 7.04492C32.3809 7.16602 32.6348 7.32812 32.8223 7.53125C33.1543 7.89062 33.3203 8.37305 33.3203 8.97852L33.2617 11.791C33.2617 12.3027 33.2852 12.627 33.332 12.7637C33.3828 12.9004 33.4414 12.9922 33.5078 13.0391C33.5781 13.0859 33.6621 13.1094 33.7598 13.1094C33.8613 13.1094 33.9434 13.0938 34.0059 13.0625L34.1699 12.9863C34.2246 12.9668 34.2715 12.9902 34.3105 13.0566C34.3535 13.1191 34.375 13.1758 34.375 13.2266C34.375 13.2734 34.3535 13.3359 34.3105 13.4141C34.2715 13.4922 34.1953 13.5762 34.082 13.666C33.9727 13.752 33.8477 13.8281 33.707 13.8945C32.9297 14.2617 32.4004 14.1758 32.1191 13.6367C32.0605 13.5312 32.0195 13.4043 31.9961 13.2559ZM31.9785 12.4883C31.9785 11.9258 31.9824 11.3672 31.9902 10.8125C31.1777 10.8438 30.625 10.8965 30.332 10.9707C30.043 11.041 29.834 11.1094 29.7051 11.1758C29.5762 11.2422 29.4746 11.3203 29.4004 11.4102C29.2793 11.5586 29.2188 11.7832 29.2188 12.084C29.2188 12.3809 29.3242 12.6191 29.5352 12.7988C29.7461 12.9746 30.0488 13.0625 30.4434 13.0625C31.002 13.0625 31.5137 12.8711 31.9785 12.4883ZM39.373 8.99609L39.3789 8.78516C39.3789 8.71094 39.3613 8.58594 39.3262 8.41016C39.291 8.23047 39.1777 8.08398 38.9863 7.9707C38.7988 7.85742 38.5586 7.80078 38.2656 7.80078C37.9766 7.80078 37.7188 7.875 37.4922 8.02344C37.2695 8.16797 37.0879 8.36328 36.9473 8.60938C36.6816 9.07812 36.5488 9.70508 36.5488 10.4902C36.5488 11.2324 36.7285 11.8359 37.0879 12.3008C37.4551 12.7773 37.9395 13.0156 38.541 13.0156C39.0879 13.0156 39.6113 12.8652 40.1113 12.5645C40.2324 12.4902 40.3262 12.4258 40.3926 12.3711C40.4316 12.3711 40.4766 12.4023 40.5273 12.4648C40.625 12.5781 40.6738 12.6699 40.6738 12.7402C40.6738 12.8066 40.6465 12.8848 40.5918 12.9746C40.5371 13.0605 40.457 13.1543 40.3516 13.2559C40.25 13.3535 40.127 13.4531 39.9824 13.5547C39.8379 13.6562 39.6758 13.748 39.4961 13.8301C39.0859 14.0176 38.666 14.1113 38.2363 14.1113C37.8066 14.1113 37.4043 14.0391 37.0293 13.8945C36.6582 13.7461 36.3379 13.5293 36.0684 13.2441C35.4902 12.6387 35.2012 11.8066 35.2012 10.748C35.2012 9.54492 35.5684 8.57812 36.3027 7.84766C36.9707 7.1875 37.7422 6.85742 38.6172 6.85742C39.1914 6.85742 39.6699 6.98047 40.0527 7.22656C40.4551 7.48438 40.6562 7.82422 40.6562 8.24609C40.6562 8.47656 40.6055 8.65039 40.5039 8.76758C40.3281 8.97461 40.123 9.07812 39.8887 9.07812C39.6582 9.07812 39.4863 9.05078 39.373 8.99609ZM42.8359 14C42.2383 14 41.9395 13.8633 41.9395 13.5898C41.9395 13.4453 41.9688 13.3359 42.0273 13.2617C42.1211 13.293 42.209 13.3086 42.291 13.3086C42.6309 13.3086 42.8066 13.1035 42.8184 12.6934V5.35742C42.8184 5.08398 42.791 4.91016 42.7363 4.83594C42.6465 4.71094 42.502 4.64844 42.3027 4.64844C42.2129 4.64844 42.125 4.6582 42.0391 4.67773C41.957 4.69336 41.8984 4.69336 41.8633 4.67773C41.832 4.6582 41.8066 4.63281 41.7871 4.60156C41.709 4.47266 41.8066 4.30859 42.0801 4.10938C42.5098 3.79297 42.9336 3.63477 43.3516 3.63477C43.7969 3.63477 44.0469 3.875 44.1016 4.35547C44.1172 4.5 44.125 4.65234 44.125 4.8125V12.7168C44.1367 13.0215 44.248 13.209 44.459 13.2793C44.5215 13.2988 44.5938 13.3164 44.6758 13.332C44.7617 13.3477 44.8398 13.3672 44.9102 13.3906C44.9805 13.4102 45.0352 13.4336 45.0742 13.4609C45.1406 13.5117 45.1738 13.5938 45.1738 13.707C45.1738 13.8438 45.1426 13.9512 45.0801 14.0293C45.002 14.0098 44.877 14 44.7051 14H42.8359ZM45.9531 10.7656C45.9531 10.2891 46 9.86133 46.0938 9.48242C46.1875 9.10352 46.3164 8.76953 46.4805 8.48047C46.6445 8.19141 46.8379 7.94531 47.0605 7.74219C47.2832 7.53516 47.5215 7.36719 47.7754 7.23828C48.2715 6.98438 48.8164 6.85742 49.4102 6.85742C50.1719 6.85742 50.8184 7.13477 51.3496 7.68945C51.9395 8.29883 52.2344 9.10352 52.2344 10.1035C52.2344 11.416 51.877 12.4375 51.1621 13.168C50.541 13.7969 49.7969 14.1113 48.9297 14.1113C48.0234 14.1113 47.2969 13.793 46.75 13.1562C46.2188 12.543 45.9531 11.7461 45.9531 10.7656ZM49.2754 13.1562C49.5371 13.1562 49.7715 13.0957 49.9785 12.9746C50.1855 12.8496 50.3613 12.6797 50.5059 12.4648C50.7949 12.0195 50.9395 11.4414 50.9395 10.7305C50.9395 9.94922 50.7871 9.28516 50.4824 8.73828C50.1387 8.10938 49.6445 7.79492 49 7.79492C48.4805 7.79492 48.0645 7.99414 47.752 8.39258C47.4199 8.81445 47.2539 9.4043 47.2539 10.1621C47.2539 11.1113 47.4629 11.8613 47.8809 12.4121C48.2559 12.9082 48.7207 13.1562 49.2754 13.1562ZM55.6094 13.7129C54.3047 10.3066 53.6328 8.54883 53.5938 8.43945C53.5547 8.32617 53.5137 8.22266 53.4707 8.12891C53.373 7.91016 53.2852 7.80078 53.207 7.80078C53.1562 7.80078 53.0996 7.80664 53.0371 7.81836C52.9746 7.83008 52.9238 7.80859 52.8848 7.75391C52.8457 7.69922 52.8262 7.63086 52.8262 7.54883C52.8262 7.4668 52.8633 7.38281 52.9375 7.29688C53.0156 7.21094 53.1113 7.13672 53.2246 7.07422C53.4707 6.92969 53.666 6.85742 53.8105 6.85742C53.9551 6.85742 54.0703 6.86133 54.1562 6.86914C54.2422 6.87695 54.3223 6.90625 54.3965 6.95703C54.5527 7.05859 54.6836 7.27734 54.7891 7.61328L56.5059 12.7344C56.7793 12.1836 56.9824 11.7617 57.1152 11.4688L57.4785 10.6133C57.916 9.53516 58.1348 8.77734 58.1348 8.33984V8.26367C58.1348 8.06836 58.0898 7.91406 58 7.80078C57.9141 7.6875 57.7598 7.61914 57.5371 7.5957C57.498 7.5332 57.4785 7.46875 57.4785 7.40234C57.4785 7.33203 57.5156 7.26367 57.5898 7.19727C57.668 7.12695 57.7656 7.06641 57.8828 7.01562C58.125 6.91016 58.3887 6.85742 58.6738 6.85742C58.9629 6.85742 59.1855 6.90234 59.3418 6.99219C59.502 7.07812 59.582 7.25 59.582 7.50781C59.582 8.05469 59.2109 9.14258 58.4688 10.7715L57.9355 11.8906C57.5684 12.6328 57.291 13.1367 57.1035 13.4023C56.7676 13.875 56.4727 14.1113 56.2188 14.1113C56.0352 14.1113 55.8711 14.0391 55.7266 13.8945C55.6758 13.8438 55.6367 13.7832 55.6094 13.7129ZM60.666 10.8477C60.666 10.375 60.7148 9.95508 60.8125 9.58789C60.9102 9.2207 61.041 8.89258 61.2051 8.60352C61.373 8.31055 61.5684 8.05469 61.791 7.83594C62.0176 7.61719 62.2598 7.43555 62.5176 7.29102C63.0254 7.00195 63.5254 6.85742 64.0176 6.85742C64.5098 6.85742 64.9043 6.94531 65.2012 7.12109C65.498 7.29297 65.7402 7.52344 65.9277 7.8125C66.2754 8.36328 66.4492 9.0957 66.4492 10.0098C66.4492 10.3496 66.3066 10.5234 66.0215 10.5312L61.9316 10.6191C61.9551 11.4668 62.1738 12.0938 62.5879 12.5C62.9395 12.8438 63.3945 13.0156 63.9531 13.0156C64.7852 13.0156 65.4609 12.8418 65.9805 12.4941C66.0156 12.4941 66.0586 12.5234 66.1094 12.582C66.207 12.6992 66.2559 12.8008 66.2559 12.8867C66.2559 13.0742 66.0215 13.3145 65.5527 13.6074C65.0137 13.9434 64.3848 14.1113 63.666 14.1113C62.7285 14.1113 61.9922 13.8125 61.457 13.2148C60.9297 12.6289 60.666 11.8398 60.666 10.8477ZM61.9668 9.86328C63.0918 9.80859 64.1211 9.73633 65.0547 9.64648C65.0977 8.4043 64.668 7.7832 63.7656 7.7832C63.2617 7.7832 62.8496 7.97852 62.5293 8.36914C62.2363 8.72852 62.0488 9.22656 61.9668 9.86328Z" fill="url(#paint0_linear)"/>
</g>
<path d="M5.01074 14.0547C4.90592 14.0182 4.68034 14 4.33398 14H1.4834C1.24642 14 1.05729 13.9635 0.916016 13.8906C0.77474 13.8132 0.704102 13.6742 0.704102 13.4736C0.704102 13.3278 0.738281 13.2116 0.806641 13.125C0.988932 13.1706 1.15527 13.1934 1.30566 13.1934C1.46061 13.1934 1.58138 13.1774 1.66797 13.1455C1.75911 13.1136 1.83659 13.0566 1.90039 12.9746C2.04167 12.8014 2.11686 12.5166 2.12598 12.1201V5.13379C2.12598 4.77376 2.02572 4.54818 1.8252 4.45703C1.76139 4.42513 1.6748 4.39779 1.56543 4.375C1.45605 4.35221 1.34668 4.32943 1.2373 4.30664C1.13249 4.2793 1.04362 4.2474 0.970703 4.21094C0.82487 4.13802 0.751953 4.01497 0.751953 3.8418C0.751953 3.67318 0.786133 3.54785 0.854492 3.46582C0.95931 3.50228 1.1849 3.52051 1.53125 3.52051H4.31348C4.55046 3.52051 4.73958 3.55924 4.88086 3.63672C5.02669 3.70964 5.09961 3.84635 5.09961 4.04688C5.09961 4.19727 5.06315 4.31348 4.99023 4.39551C4.81706 4.34993 4.62793 4.32715 4.42285 4.32715C3.98079 4.32715 3.75293 4.68717 3.73926 5.40723V12.3867C3.73926 12.7467 3.83952 12.9746 4.04004 13.0703C4.10384 13.0977 4.19043 13.1227 4.2998 13.1455C4.40918 13.1683 4.51628 13.1934 4.62109 13.2207C4.73047 13.2435 4.82161 13.2731 4.89453 13.3096C5.04492 13.387 5.12012 13.5101 5.12012 13.6787C5.12012 13.8382 5.08366 13.9635 5.01074 14.0547ZM9.65039 14.0293C9.57227 14.0098 9.44727 14 9.27539 14H7.40625C7.03125 14 6.79102 13.9336 6.68555 13.8008C6.64258 13.75 6.62109 13.6914 6.62109 13.625C6.62109 13.4609 6.65234 13.3398 6.71484 13.2617C6.80859 13.293 6.91406 13.3086 7.03125 13.3086C7.15234 13.3086 7.24219 13.2598 7.30078 13.1621C7.36328 13.0645 7.39258 12.8828 7.38867 12.6172V8.78516C7.38867 8.41797 7.32031 8.18945 7.18359 8.09961C7.12891 8.06445 7.05664 8.04688 6.9668 8.04688C6.87695 8.04688 6.80469 8.06055 6.75 8.08789C6.69922 8.11523 6.65625 8.13477 6.62109 8.14648C6.58984 8.1582 6.5625 8.1582 6.53906 8.14648C6.51562 8.13086 6.49219 8.10938 6.46875 8.08203C6.41016 8.01953 6.38086 7.95508 6.38086 7.88867C6.38086 7.81836 6.4043 7.74609 6.45117 7.67188C6.50195 7.59375 6.58203 7.50586 6.69141 7.4082C6.80078 7.30664 6.92578 7.21484 7.06641 7.13281C7.38281 6.94922 7.69922 6.85742 8.01562 6.85742C8.37891 6.85742 8.59375 7.09766 8.66016 7.57812C8.67969 7.71875 8.69141 7.86328 8.69531 8.01172C9.27734 7.52344 9.91016 7.17578 10.5938 6.96875C10.8398 6.89453 11.0879 6.85742 11.3379 6.85742C11.5918 6.85742 11.832 6.89062 12.0586 6.95703C12.2891 7.02344 12.4883 7.13086 12.6562 7.2793C13.0117 7.5918 13.1895 8.08008 13.1895 8.74414V12.7168C13.2012 13.0215 13.3145 13.209 13.5293 13.2793C13.5879 13.2988 13.6602 13.3164 13.7461 13.332C13.832 13.3477 13.9082 13.3672 13.9746 13.3906C14.0449 13.4102 14.0996 13.4336 14.1387 13.4609C14.2051 13.5117 14.2383 13.5938 14.2383 13.707C14.2383 13.8438 14.207 13.9512 14.1445 14.0293C14.0664 14.0098 13.9414 14 13.7695 14H11.9004C11.5254 14 11.2852 13.9336 11.1797 13.8008C11.1367 13.75 11.1152 13.6914 11.1152 13.625C11.1152 13.4609 11.1465 13.3398 11.209 13.2617C11.3027 13.293 11.3887 13.3086 11.4668 13.3086C11.5488 13.3086 11.6172 13.2988 11.6719 13.2793C11.7266 13.2559 11.7695 13.2188 11.8008 13.168C11.8555 13.0742 11.8828 12.8906 11.8828 12.6172V9.16016C11.8828 8.49609 11.6855 8.125 11.291 8.04688C11.1699 8.02344 11.0176 8.01172 10.834 8.01172C10.6543 8.01172 10.4551 8.03906 10.2363 8.09375C10.0176 8.14844 9.8125 8.21875 9.62109 8.30469C9.25391 8.46875 8.94531 8.67578 8.69531 8.92578V12.7168C8.70703 13.0215 8.81836 13.209 9.0293 13.2793C9.0918 13.2988 9.16406 13.3164 9.24609 13.332C9.33203 13.3477 9.41016 13.3672 9.48047 13.3906C9.55078 13.4102 9.60547 13.4336 9.64453 13.4609C9.71094 13.5117 9.74414 13.5938 9.74414 13.707C9.74414 13.8438 9.71289 13.9512 9.65039 14.0293ZM19.1426 8.9375C19.1426 8.33594 18.8926 7.9375 18.3926 7.74219C18.2324 7.67969 18.0586 7.64844 17.8711 7.64844C17.6875 7.64844 17.5156 7.66406 17.3555 7.69531C17.1992 7.72656 17.0605 7.77539 16.9395 7.8418C16.666 7.99023 16.5293 8.20312 16.5293 8.48047C16.5293 8.74609 16.6426 8.97656 16.8691 9.17188C17.1191 9.37891 17.584 9.63477 18.2637 9.93945C18.9434 10.2402 19.4668 10.5703 19.834 10.9297C20.2051 11.2852 20.3906 11.6953 20.3906 12.1602C20.3906 12.6836 20.1758 13.125 19.7461 13.4844C19.2422 13.9023 18.5449 14.1113 17.6543 14.1113C16.5645 14.1113 15.8105 13.8789 15.3926 13.4141C15.248 13.25 15.1758 13.041 15.1758 12.7871C15.1758 12.1738 15.3262 11.8164 15.627 11.7148C15.7012 11.6914 15.7715 11.6797 15.8379 11.6797C16.0215 11.6797 16.1211 11.7363 16.1367 11.8496C16.2227 12.8262 16.7695 13.3145 17.7773 13.3145C18.3828 13.3145 18.7871 13.1445 18.9902 12.8047C19.0566 12.6953 19.0898 12.5625 19.0898 12.4062C19.0898 12.25 19.0391 12.1074 18.9375 11.9785C18.8398 11.8496 18.7031 11.7305 18.5273 11.6211C18.3516 11.5078 18.1426 11.3984 17.9004 11.293L17.1211 10.9414C15.9258 10.3945 15.3281 9.66797 15.3281 8.76172C15.3281 8.17578 15.5879 7.70703 16.1074 7.35547C16.5996 7.02344 17.2344 6.85742 18.0117 6.85742C19.0664 6.85742 19.7227 7.08594 19.9805 7.54297C20.0469 7.66016 20.0801 7.78906 20.0801 7.92969C20.0801 8.07031 20.0723 8.19727 20.0566 8.31055C20.041 8.41992 20.0215 8.51953 19.998 8.60938C19.959 8.78125 19.9141 8.90234 19.8633 8.97266C19.7617 9.04688 19.6152 9.08398 19.4238 9.08398C19.2363 9.08398 19.1426 9.03516 19.1426 8.9375ZM23.666 10.0039L23.6602 11.5449C23.6602 12.1895 23.6934 12.5781 23.7598 12.7109C23.8262 12.8398 23.9043 12.918 23.9941 12.9453C24.084 12.9688 24.1992 12.9805 24.3398 12.9805C24.4805 12.9805 24.6074 12.9707 24.7207 12.9512C24.8379 12.9277 24.9473 12.8984 25.0488 12.8633C25.1504 12.8281 25.248 12.7891 25.3418 12.7461L25.6289 12.623C25.6953 12.5996 25.7695 12.668 25.8516 12.8281C25.875 12.8711 25.8867 12.9219 25.8867 12.9805C25.8867 13.0352 25.8633 13.1074 25.8164 13.1973C25.7695 13.2871 25.6777 13.3906 25.541 13.5078C25.4082 13.6211 25.252 13.7227 25.0723 13.8125C24.6816 14.0117 24.3301 14.1113 24.0176 14.1113C23.709 14.1113 23.457 14.0938 23.2617 14.0586C23.0664 14.0234 22.9004 13.9531 22.7637 13.8477C22.4824 13.6289 22.3418 13.2285 22.3418 12.6465V8.03516H21.7617C21.6406 8.03516 21.5527 7.99609 21.498 7.91797C21.4043 7.79688 21.3574 7.69531 21.3574 7.61328C21.3574 7.47656 21.3906 7.40039 21.457 7.38477C22.0781 7.2793 22.5176 6.81836 22.7754 6.00195C22.8496 5.75586 22.9082 5.46484 22.9512 5.12891C23.1387 5.09766 23.2793 5.08203 23.373 5.08203C23.4707 5.08203 23.5547 5.13086 23.625 5.22852C23.6953 5.32617 23.7285 5.43945 23.7246 5.56836C23.7246 5.69727 23.7227 5.81836 23.7188 5.93164C23.7148 6.04492 23.7109 6.16797 23.707 6.30078L23.6836 7.12109H25.7109C25.7617 7.21094 25.7871 7.30664 25.7871 7.4082V7.58984C25.7871 7.75391 25.6992 7.88867 25.5234 7.99414C25.3477 8.0957 25.1523 8.14648 24.9375 8.14648C24.7266 8.14648 24.5742 8.14453 24.4805 8.14062C24.3906 8.13281 24.3027 8.125 24.2168 8.11719L23.959 8.08203C23.8691 8.07422 23.7734 8.06641 23.6719 8.05859V8.12305L23.666 10.0039ZM30.9961 13.2559C30.4258 13.8262 29.7363 14.1113 28.9277 14.1113C28.3027 14.1113 27.8027 13.9316 27.4277 13.5723C27.0488 13.209 26.8594 12.7383 26.8594 12.1602C26.8594 11.4414 27.1797 10.9023 27.8203 10.543C28.3984 10.2148 29.2129 10.0508 30.2637 10.0508H30.9961C31 9.90234 31.002 9.75781 31.002 9.61719V9.17773C31.002 8.6543 30.9258 8.28516 30.7734 8.07031C30.6016 7.82812 30.3086 7.70703 29.8945 7.70703C28.9453 7.70703 28.457 8.04688 28.4297 8.72656C28.4258 8.83203 28.4277 8.91992 28.4355 8.99023C28.3574 9.05273 28.2246 9.08398 28.0371 9.08398C27.8535 9.08398 27.7188 9.0625 27.6328 9.01953C27.5508 8.97656 27.4785 8.91797 27.416 8.84375C27.2832 8.69141 27.2168 8.49805 27.2168 8.26367C27.2168 8.02539 27.2852 7.81836 27.4219 7.64258C27.5625 7.46289 27.752 7.31641 27.9902 7.20312C28.4551 6.97266 29.0039 6.85742 29.6367 6.85742C30.2695 6.85742 30.7441 6.91992 31.0605 7.04492C31.3809 7.16602 31.6348 7.32812 31.8223 7.53125C32.1543 7.89062 32.3203 8.37305 32.3203 8.97852L32.2617 11.791C32.2617 12.3027 32.2852 12.627 32.332 12.7637C32.3828 12.9004 32.4414 12.9922 32.5078 13.0391C32.5781 13.0859 32.6621 13.1094 32.7598 13.1094C32.8613 13.1094 32.9434 13.0938 33.0059 13.0625L33.1699 12.9863C33.2246 12.9668 33.2715 12.9902 33.3105 13.0566C33.3535 13.1191 33.375 13.1758 33.375 13.2266C33.375 13.2734 33.3535 13.3359 33.3105 13.4141C33.2715 13.4922 33.1953 13.5762 33.082 13.666C32.9727 13.752 32.8477 13.8281 32.707 13.8945C31.9297 14.2617 31.4004 14.1758 31.1191 13.6367C31.0605 13.5312 31.0195 13.4043 30.9961 13.2559ZM30.9785 12.4883C30.9785 11.9258 30.9824 11.3672 30.9902 10.8125C30.1777 10.8438 29.625 10.8965 29.332 10.9707C29.043 11.041 28.834 11.1094 28.7051 11.1758C28.5762 11.2422 28.4746 11.3203 28.4004 11.4102C28.2793 11.5586 28.2188 11.7832 28.2188 12.084C28.2188 12.3809 28.3242 12.6191 28.5352 12.7988C28.7461 12.9746 29.0488 13.0625 29.4434 13.0625C30.002 13.0625 30.5137 12.8711 30.9785 12.4883ZM38.373 8.99609L38.3789 8.78516C38.3789 8.71094 38.3613 8.58594 38.3262 8.41016C38.291 8.23047 38.1777 8.08398 37.9863 7.9707C37.7988 7.85742 37.5586 7.80078 37.2656 7.80078C36.9766 7.80078 36.7188 7.875 36.4922 8.02344C36.2695 8.16797 36.0879 8.36328 35.9473 8.60938C35.6816 9.07812 35.5488 9.70508 35.5488 10.4902C35.5488 11.2324 35.7285 11.8359 36.0879 12.3008C36.4551 12.7773 36.9395 13.0156 37.541 13.0156C38.0879 13.0156 38.6113 12.8652 39.1113 12.5645C39.2324 12.4902 39.3262 12.4258 39.3926 12.3711C39.4316 12.3711 39.4766 12.4023 39.5273 12.4648C39.625 12.5781 39.6738 12.6699 39.6738 12.7402C39.6738 12.8066 39.6465 12.8848 39.5918 12.9746C39.5371 13.0605 39.457 13.1543 39.3516 13.2559C39.25 13.3535 39.127 13.4531 38.9824 13.5547C38.8379 13.6562 38.6758 13.748 38.4961 13.8301C38.0859 14.0176 37.666 14.1113 37.2363 14.1113C36.8066 14.1113 36.4043 14.0391 36.0293 13.8945C35.6582 13.7461 35.3379 13.5293 35.0684 13.2441C34.4902 12.6387 34.2012 11.8066 34.2012 10.748C34.2012 9.54492 34.5684 8.57812 35.3027 7.84766C35.9707 7.1875 36.7422 6.85742 37.6172 6.85742C38.1914 6.85742 38.6699 6.98047 39.0527 7.22656C39.4551 7.48438 39.6562 7.82422 39.6562 8.24609C39.6562 8.47656 39.6055 8.65039 39.5039 8.76758C39.3281 8.97461 39.123 9.07812 38.8887 9.07812C38.6582 9.07812 38.4863 9.05078 38.373 8.99609ZM41.8359 14C41.2383 14 40.9395 13.8633 40.9395 13.5898C40.9395 13.4453 40.9688 13.3359 41.0273 13.2617C41.1211 13.293 41.209 13.3086 41.291 13.3086C41.6309 13.3086 41.8066 13.1035 41.8184 12.6934V5.35742C41.8184 5.08398 41.791 4.91016 41.7363 4.83594C41.6465 4.71094 41.502 4.64844 41.3027 4.64844C41.2129 4.64844 41.125 4.6582 41.0391 4.67773C40.957 4.69336 40.8984 4.69336 40.8633 4.67773C40.832 4.6582 40.8066 4.63281 40.7871 4.60156C40.709 4.47266 40.8066 4.30859 41.0801 4.10938C41.5098 3.79297 41.9336 3.63477 42.3516 3.63477C42.7969 3.63477 43.0469 3.875 43.1016 4.35547C43.1172 4.5 43.125 4.65234 43.125 4.8125V12.7168C43.1367 13.0215 43.248 13.209 43.459 13.2793C43.5215 13.2988 43.5938 13.3164 43.6758 13.332C43.7617 13.3477 43.8398 13.3672 43.9102 13.3906C43.9805 13.4102 44.0352 13.4336 44.0742 13.4609C44.1406 13.5117 44.1738 13.5938 44.1738 13.707C44.1738 13.8438 44.1426 13.9512 44.0801 14.0293C44.002 14.0098 43.877 14 43.7051 14H41.8359ZM44.9531 10.7656C44.9531 10.2891 45 9.86133 45.0938 9.48242C45.1875 9.10352 45.3164 8.76953 45.4805 8.48047C45.6445 8.19141 45.8379 7.94531 46.0605 7.74219C46.2832 7.53516 46.5215 7.36719 46.7754 7.23828C47.2715 6.98438 47.8164 6.85742 48.4102 6.85742C49.1719 6.85742 49.8184 7.13477 50.3496 7.68945C50.9395 8.29883 51.2344 9.10352 51.2344 10.1035C51.2344 11.416 50.877 12.4375 50.1621 13.168C49.541 13.7969 48.7969 14.1113 47.9297 14.1113C47.0234 14.1113 46.2969 13.793 45.75 13.1562C45.2188 12.543 44.9531 11.7461 44.9531 10.7656ZM48.2754 13.1562C48.5371 13.1562 48.7715 13.0957 48.9785 12.9746C49.1855 12.8496 49.3613 12.6797 49.5059 12.4648C49.7949 12.0195 49.9395 11.4414 49.9395 10.7305C49.9395 9.94922 49.7871 9.28516 49.4824 8.73828C49.1387 8.10938 48.6445 7.79492 48 7.79492C47.4805 7.79492 47.0645 7.99414 46.752 8.39258C46.4199 8.81445 46.2539 9.4043 46.2539 10.1621C46.2539 11.1113 46.4629 11.8613 46.8809 12.4121C47.2559 12.9082 47.7207 13.1562 48.2754 13.1562ZM54.6094 13.7129C53.3047 10.3066 52.6328 8.54883 52.5938 8.43945C52.5547 8.32617 52.5137 8.22266 52.4707 8.12891C52.373 7.91016 52.2852 7.80078 52.207 7.80078C52.1562 7.80078 52.0996 7.80664 52.0371 7.81836C51.9746 7.83008 51.9238 7.80859 51.8848 7.75391C51.8457 7.69922 51.8262 7.63086 51.8262 7.54883C51.8262 7.4668 51.8633 7.38281 51.9375 7.29688C52.0156 7.21094 52.1113 7.13672 52.2246 7.07422C52.4707 6.92969 52.666 6.85742 52.8105 6.85742C52.9551 6.85742 53.0703 6.86133 53.1562 6.86914C53.2422 6.87695 53.3223 6.90625 53.3965 6.95703C53.5527 7.05859 53.6836 7.27734 53.7891 7.61328L55.5059 12.7344C55.7793 12.1836 55.9824 11.7617 56.1152 11.4688L56.4785 10.6133C56.916 9.53516 57.1348 8.77734 57.1348 8.33984V8.26367C57.1348 8.06836 57.0898 7.91406 57 7.80078C56.9141 7.6875 56.7598 7.61914 56.5371 7.5957C56.498 7.5332 56.4785 7.46875 56.4785 7.40234C56.4785 7.33203 56.5156 7.26367 56.5898 7.19727C56.668 7.12695 56.7656 7.06641 56.8828 7.01562C57.125 6.91016 57.3887 6.85742 57.6738 6.85742C57.9629 6.85742 58.1855 6.90234 58.3418 6.99219C58.502 7.07812 58.582 7.25 58.582 7.50781C58.582 8.05469 58.2109 9.14258 57.4688 10.7715L56.9355 11.8906C56.5684 12.6328 56.291 13.1367 56.1035 13.4023C55.7676 13.875 55.4727 14.1113 55.2188 14.1113C55.0352 14.1113 54.8711 14.0391 54.7266 13.8945C54.6758 13.8438 54.6367 13.7832 54.6094 13.7129ZM59.666 10.8477C59.666 10.375 59.7148 9.95508 59.8125 9.58789C59.9102 9.2207 60.041 8.89258 60.2051 8.60352C60.373 8.31055 60.5684 8.05469 60.791 7.83594C61.0176 7.61719 61.2598 7.43555 61.5176 7.29102C62.0254 7.00195 62.5254 6.85742 63.0176 6.85742C63.5098 6.85742 63.9043 6.94531 64.2012 7.12109C64.498 7.29297 64.7402 7.52344 64.9277 7.8125C65.2754 8.36328 65.4492 9.0957 65.4492 10.0098C65.4492 10.3496 65.3066 10.5234 65.0215 10.5312L60.9316 10.6191C60.9551 11.4668 61.1738 12.0938 61.5879 12.5C61.9395 12.8438 62.3945 13.0156 62.9531 13.0156C63.7852 13.0156 64.4609 12.8418 64.9805 12.4941C65.0156 12.4941 65.0586 12.5234 65.1094 12.582C65.207 12.6992 65.2559 12.8008 65.2559 12.8867C65.2559 13.0742 65.0215 13.3145 64.5527 13.6074C64.0137 13.9434 63.3848 14.1113 62.666 14.1113C61.7285 14.1113 60.9922 13.8125 60.457 13.2148C59.9297 12.6289 59.666 11.8398 59.666 10.8477ZM60.9668 9.86328C62.0918 9.80859 63.1211 9.73633 64.0547 9.64648C64.0977 8.4043 63.668 7.7832 62.7656 7.7832C62.2617 7.7832 61.8496 7.97852 61.5293 8.36914C61.2363 8.72852 61.0488 9.22656 60.9668 9.86328Z" fill="url(#paint1_linear)"/>
<defs>
<filter id="filter0_f" x="1.3041" y="3.06582" width="65.5451" height="11.4519" filterUnits="userSpaceOnUse" color-interpolation-filters="sRGB">
<feFlood flood-opacity="0" result="BackgroundImageFix"/>
<feBlend mode="normal" in="SourceGraphic" in2="BackgroundImageFix" result="shape"/>
<feGaussianBlur stdDeviation="0.2" result="effect1_foregroundBlur"/>
</filter>
<linearGradient id="paint0_linear" x1="1" y1="3.6" x2="69.3597" y2="11.3681" gradientUnits="userSpaceOnUse">
<stop stop-color="#3187A3"/>
</linearGradient>
<linearGradient id="paint1_linear" x1="-2.03325e-07" y1="3.6" x2="68.3597" y2="11.3681" gradientUnits="userSpaceOnUse">
<stop stop-color="#833AB4"/>
<stop offset="0.510417" stop-color="#FD1D1D"/>
<stop offset="0.942708" stop-color="#FCB045"/>
</linearGradient>
</defs>
</svg>
